<?xml version="1.0" standalone="no"?>
<!DOCTYPE svg PUBLIC "-//W3C//DTD SVG 20010904//EN"
 "http://www.w3.org/TR/2001/REC-SVG-20010904/DTD/svg10.dtd">
<svg version="1.0" xmlns="http://www.w3.org/2000/svg"
 width="275.000000pt" height="275.000000pt" viewBox="0 0 275.000000 275.000000"
 preserveAspectRatio="xMidYMid meet">
<metadata>
Created by potrace 1.11, written by Peter Selinger 2001-2013
</metadata>
<g transform="translate(0.000000,275.000000) scale(0.100000,-0.100000)"
fill="#000000" stroke="none">
<path d="M582 1904 c-21 -14 -22 -22 -22 -164 0 -142 1 -150 22 -164 30 -21
54 -20 78 4 18 18 20 33 20 158 0 125 -2 140 -20 160 -24 26 -47 28 -78 6z"/>
<path d="M757 1847 c-15 -11 -17 -28 -15 -137 3 -124 3 -124 31 -140 24 -13
30 -13 55 0 27 16 27 16 30 137 2 100 0 124 -13 137 -20 19 -64 21 -88 3z m80
-29 c-3 -8 -6 -5 -6 6 -1 11 2 17 5 13 3 -3 4 -12 1 -19z"/>
<path d="M387 1822 c-25 -27 -25 -362 -1 -386 18 -18 56 -21 85 -6 18 10 19
23 19 195 0 154 -3 186 -16 199 -21 22 -67 20 -87 -2z"/>
<path d="M958 1753 c7 -3 16 -2 19 1 4 3 -2 6 -13 5 -11 0 -14 -3 -6 -6z"/>
<path d="M200 1630 c-19 -19 -20 -33 -20 -215 0 -182 1 -196 20 -215 24 -24
72 -26 94 -4 14 13 16 47 16 218 0 184 -2 204 -18 219 -25 23 -68 21 -92 -3z"/>
<path d="M606 1501 c-38 -26 -55 -57 -56 -104 0 -77 50 -127 128 -127 21 0 47
6 57 14 19 14 19 15 1 35 -15 17 -27 20 -52 15 -25 -4 -37 -1 -53 15 -46 46
-9 118 54 107 28 -6 36 -3 46 15 10 19 9 25 -7 36 -26 19 -84 16 -118 -6z"/>
<path d="M810 1498 c-60 -41 -75 -98 -44 -164 31 -64 118 -84 180 -42 65 45
74 126 21 184 -44 48 -105 57 -157 22z m106 -64 c20 -19 24 -31 19 -52 -7 -32
-31 -52 -59 -52 -62 1 -83 87 -29 119 28 16 42 13 69 -15z"/>
<path d="M1027 1514 c-4 -4 -7 -61 -7 -126 l0 -119 83 3 c81 3 82 3 85 31 3
26 2 27 -47 27 l-50 0 -3 93 c-3 90 -3 92 -28 95 -14 2 -29 0 -33 -4z"/>
<path d="M1210 1395 l0 -125 80 0 80 0 0 30 c0 29 -1 30 -50 30 l-50 0 0 95 0
95 -30 0 -30 0 0 -125z"/>
<path d="M1397 1513 c-4 -3 -7 -60 -7 -125 l0 -118 90 0 90 0 0 30 c0 30 -1
30 -55 30 -48 0 -55 2 -55 20 0 17 7 20 45 20 41 0 45 2 45 25 0 23 -4 25 -45
25 -38 0 -45 3 -45 20 0 18 7 20 55 20 54 0 55 0 55 30 l0 30 -83 0 c-46 0
-87 -3 -90 -7z"/>
<path d="M1660 1503 c-46 -24 -75 -81 -65 -130 10 -55 63 -103 111 -103 57 0
84 10 84 30 0 27 -24 41 -59 34 -39 -8 -71 17 -71 56 0 44 23 65 71 65 46 0
74 24 52 46 -20 20 -86 21 -123 2z"/>
<path d="M1810 1490 c0 -27 3 -30 30 -30 l30 0 0 -95 0 -95 35 0 35 0 0 95 0
95 30 0 c27 0 30 3 30 30 l0 30 -95 0 -95 0 0 -30z"/>
<path d="M2030 1395 l0 -125 30 0 30 0 0 125 0 125 -30 0 -30 0 0 -125z"/>
<path d="M2110 1516 c0 -2 12 -35 26 -72 14 -38 35 -93 46 -121 17 -47 23 -53
47 -53 27 0 31 6 74 118 24 64 43 120 40 125 -2 4 -17 7 -33 7 -27 0 -30 -5
-51 -70 -13 -38 -26 -70 -29 -70 -3 0 -16 32 -29 70 -22 69 -23 70 -57 70 -19
0 -34 -2 -34 -4z"/>
<path d="M2364 1507 c-2 -7 -3 -62 -2 -123 l3 -109 93 -3 92 -3 0 31 0 30 -60
0 c-53 0 -60 2 -60 20 0 17 7 20 45 20 41 0 45 2 45 25 0 23 -4 25 -45 25 -38
0 -45 3 -45 20 0 18 7 20 55 20 54 0 55 0 55 30 l0 30 -85 0 c-62 0 -87 -4
-91 -13z"/>
<path d="M392 1344 c-21 -15 -22 -20 -22 -198 0 -128 4 -186 12 -194 16 -16
80 -16 96 0 8 8 12 66 12 194 0 178 -1 183 -22 198 -12 9 -29 16 -38 16 -9 0
-26 -7 -38 -16z"/>
<path d="M770 1227 c-24 -12 -25 -15 -28 -139 -3 -140 4 -158 58 -158 51 0 58
17 59 154 2 119 1 125 -21 140 -27 19 -35 20 -68 3z"/>
<path d="M929 1193 c-13 -16 -12 -17 4 -4 16 13 21 21 13 21 -2 0 -10 -8 -17
-17z"/>
<path d="M576 1184 c-13 -13 -16 -42 -16 -158 0 -126 2 -145 18 -159 24 -22
65 -21 85 1 14 15 17 42 17 159 0 123 -2 142 -18 156 -23 21 -66 22 -86 1z"/>
<path d="M946 1168 c5 -8 2 -9 -9 -5 -10 3 -17 2 -17 -2 0 -15 25 -19 37 -6
10 10 9 14 -3 19 -10 4 -13 2 -8 -6z"/>
<path d="M921 1104 c0 -11 3 -14 6 -6 3 7 2 16 -1 19 -3 4 -6 -2 -5 -13z"/>
<path d="M936 1073 c-6 -14 -5 -15 5 -6 7 7 10 15 7 18 -3 3 -9 -2 -12 -12z"/>
</g>
</svg>
